<svg xmlns="http://www.w3.org/2000/svg" overflow="visible" viewBox="0 0 498 498.2">
  <path d="M229.2 497.2c-41.9-3.1-80.4-16.4-115.8-38.9-3-1.9-3.8-4-3.6-7.2.2-4.1.3-8.3-.1-12.4-.8-10.6-2.4-21.1-2.8-31.7-.7-20.2-1.1-40.5-1-60.8 0-10.6 1.2-21.2 1.8-31.9.5-.1.9-.2 1.4-.4.2.4.4.9.6 1.3 5.4 14.1 11.2 28 15.9 42.3 5.9 17.8 11.1 35.8 20.8 52 1.2 2.1 1.4 4.8 2.4 7 .6 1.3 1.9 3.3 2.9 3.4 5.2.1 10.5 0 15.6-.7 3.8-.6 6.9-2.6 8.1-7 9.8-34.3 22.9-67.4 36.9-100.2.4-1 1.2-1.8 2.6-3.9.6 6.7 1.5 12.1 1.6 17.4.5 15.6.7 31.2 1.1 46.8.3 9 .8 17.9 1.3 26.9.6 12.1 1.6 24.1 1.9 36.2.3 12.3-.2 24.5-.3 36.8 0 3.2 1.6 4.8 4.5 4.6 13-1.1 26-2.4 39-3.7 3.4-.3 4.8-2.5 4.5-5.9-.4-5.1-.7-10.2-.8-15.4-.3-8.6-.3-17.2-.7-25.7-.5-11-1.6-22-1.9-33-.2-9.1.4-18.1.5-27.2.1-17.1.1-34.1 0-51.2s-.6-34.2-.7-51.3c-.1-8.6.6-17.2.4-25.8-.3-12.9-1.1-25.8-1.4-38.8-.1-6.1.5-12.3.8-18.4.2-3.2-1-4.9-4.6-4.8-11.5.1-23 .1-34.4-.1-3.5-.1-5.1 1.5-6 4.6-4.1 13.2-8 26.6-12.5 39.7-14.5 41.3-29.2 82.5-43.9 123.7-.4 1.1-1.2 2-2.3 3.6-2.6-8.2-4.8-15.4-7.1-22.5-8-24.9-16.1-49.7-23.9-74.6-4.1-12.9-7.7-26-11.6-39-3.5-11.9-7.2-23.7-10.7-35.6-1.1-3.6-3.4-4.8-7.1-4.7-8.1.2-16.3.1-24.4.1-7.8 0-8.3.5-8.3 8.5 0 20.6.3 41.2.1 61.8-.1 6.3-1.2 12.5-2.1 18.8-.7 4.5-2.7 9-2.7 13.5.2 40.9.6 81.8 1 122.7.1 6 0 12 0 18-.7.2-1.3.4-2 .7-.4-.8-.6-1.6-1.2-2.2C31.4 378.3 12.4 339.2 4.1 295c-1.6-8.8-2.7-17.6-4.1-26.4v-38.9c1.1-7.7 1.9-15.4 3.3-23.1C13.9 148.7 40.6 99.5 85.4 61.2 148.8 7.1 221.9-10.5 303.5 5.9c4.7.9 5.2 3.3 4.6 6.8-1.6 10.8-3.5 21.6-1.2 32.7.6 2.8-1.1 6-1.3 9-.8 13.7-1.3 27.4-2.2 41.1-.2 3.6-2.6 7.4-1.8 10.6 2.8 10.6-.4 21 0 31.6.5 12.1-.8 24.4-1.1 36.5-.2 8.6-.2 17.2-.3 25.8 0 6.6-.1 13.3 0 19.9.3 13 .7 26 1.1 39 .1 4.1.2 8.3.6 12.4.9 9.1 2.1 18.1 2.9 27.2.5 5.7 6.6 14.1 12.3 14.3 9.6.4 19.2-.2 28.7-.4 17.9-.5 35.8-1.2 53.7-1.7 10.4-.3 20.9.5 31-3.1 3.7-1.3 5.8-2.7 4-7.2-.9-2.4-.8-5.2-.8-7.8.1-7.1.4-14.2.6-21.3.1-3.5-1.8-5.2-5.2-5.2-10.8.1-21.6.1-32.3.4-13.3.3-26.5 1-39.7 1.1-7 .1-7.5-.7-7.3-7.5.7-24.9 1.6-49.8 2.4-74.7.2-7.1.7-14.2.6-21.4-.2-10.4-1.2-20.9-1.3-31.3-.3-26.1-.3-52.1-.4-78.2V22.6C427.6 54.4 502.9 142.3 497.8 260 492 392.4 385.4 491.4 266.4 498.2c-14.2-.3-36.4-1-37.2-1z"/>
</svg>